<?xml version="1.0" encoding="utf-8"?>
<!-- Generator: Adobe Illustrator 24.2.1, SVG Export Plug-In . SVG Version: 6.00 Build 0)  -->
<svg version="1.1" xmlns="http://www.w3.org/2000/svg" xmlns:xlink="http://www.w3.org/1999/xlink" x="0px" y="0px"
	 viewBox="0 0 528.35 528.35" style="enable-background:new 0 0 528.35 528.35;" xml:space="preserve">
<style type="text/css">
	.st0{fill:none;}
	.st1{fill:#868686;}
	.st2{fill:#B1B1B0;}
	.st3{fill:#FFFFFF;}
	.st4{fill:#C5C5C5;}
	.st5{fill:url(#SVGID_1_);}
	.st6{fill:#585857;}
	.st7{fill:#9C9B9B;}
	.st8{font-family:'Palatino-Roman';}
	.st9{font-size:47px;}
</style>
<g id="Layer_2">
	<rect x="-2.83" y="-0.11" class="st0" width="532.39" height="529.66"/>
</g>
<g id="Layer_1">
	<g>
		<path class="st1" d="M149.86,316.81c1.14-6.93,2.26-13.87,3.38-20.81c0.94-5.84,1.86-11.68,2.77-17.52
			c0.47-3.04,0.93-6.08,1.39-9.12c0.09-0.61-2.5-1.81-0.93-0.98c12,6.31,24.45,11.82,36.98,16.99c22.44,9.26,45.6,16.86,69.33,22.06
			c13.51,2.96,27.24,4.8,41.06,5.34c5.41,0.21,10.82,0.05,16.22-0.28c3.44-0.21,4.58-2.11,3.03,1.55c-0.64,1.5-1.27,3-1.91,4.51
			c-0.47,1.12,1.64,1.12,2.01,0.25c1.05-2.48,2.1-4.95,3.15-7.43c0.25-0.6-0.39-0.95-0.91-0.9c-37.65,3.82-75.65-6.26-110.83-18.83
			c-19.48-6.96-38.88-15.06-57.15-24.82c-0.61-0.33-1.75-0.13-1.87,0.69c-2.43,16.52-5.12,33-7.83,49.47
			C147.56,318.03,149.71,317.76,149.86,316.81L149.86,316.81z"/>
	</g>
	<g>
		<path class="st1" d="M145.37,251.69c-21.45-46.61-14.4-100.91,18.53-140.21c33.12-39.54,87.99-54.06,136.8-39.01
			c43.5,13.41,76.4,50.62,87.02,94.44c12.08,49.86-8.33,102.52-48.6,133.4c-1.51,1.13-3.04,2.23-4.6,3.3
			c-0.98,0.69,1.29,0.51,1.76,0.19c37.91-26.54,59.2-69.98,56.8-116.23c-2.24-43.16-27.61-82.34-64.33-104.35
			c-72.51-43.44-168.33-3.51-192.8,75.9c-9.45,30.67-6.15,64.23,7.18,93.19C143.41,252.94,145.6,252.19,145.37,251.69L145.37,251.69
			z"/>
	</g>
	<g>
		<path class="st2" d="M142.71,115.77c-1.09-0.13-2.08-0.27-2.97-0.44l-2.18-0.4c-1.92-0.35-3.49-0.12-4.69,0.71
			c-0.91,0.63-1.96,1.95-3.14,3.94c-0.35,0.59-0.65,1.15-0.9,1.68l2.5,1.49c1.66,0.99,2.66,1.55,3,1.69
			c1.37,0.54,2.44,0.45,3.19-0.28l0.18,0.11c-0.22,0.33-0.54,0.83-0.94,1.48c-0.54,0.88-1.06,1.74-1.54,2.59
			c-0.17,0.3-0.42,0.76-0.77,1.39l-0.18-0.11c0.3-1.01-0.12-1.98-1.27-2.92c-0.23-0.19-1.21-0.8-2.94-1.83l-7.21-4.3
			c-1.06-0.63-1.8-0.94-2.21-0.93c-0.41,0.02-0.81,0.26-1.19,0.72l-0.18-0.11c0.3-0.51,0.62-1.04,0.95-1.6l2.83-4.76
			c1.14-1.91,1.93-3.19,2.38-3.83c0.48-0.7,0.97-1.29,1.44-1.77c1.82-1.81,3.55-2.24,5.19-1.26c1.33,0.79,1.89,2.09,1.68,3.89
			c-0.15,1.32-0.69,2.79-1.6,4.42c0.9-1.2,1.86-2.05,2.87-2.58c1.02-0.52,2.1-0.73,3.26-0.62c0.55,0.06,1.33,0.17,2.33,0.33
			c2.08,0.35,3.4,0.22,3.97-0.37l0.23,0.14c0.08-0.14-0.15,0.25-0.69,1.16l-0.53,0.89l-0.42,0.71
			C143.02,115.25,142.86,115.51,142.71,115.77z M128.18,120.89c0.31-0.45,0.58-0.87,0.82-1.26c1.97-3.32,3.03-5.65,3.17-7
			c0.14-1.32-0.38-2.33-1.56-3.04c-2.1-1.25-4.4,0.23-6.91,4.45l-0.87,1.47c-0.31,0.51-0.61,1.06-0.92,1.64L128.18,120.89z"/>
		<path class="st2" d="M131.48,101.01c-0.31-0.23-0.49-0.51-0.54-0.87c-0.05-0.35,0.05-0.69,0.29-1.03
			c0.23-0.32,0.53-0.51,0.89-0.58c0.36-0.07,0.7,0,1,0.22c0.29,0.21,0.46,0.51,0.5,0.87c0.04,0.37-0.06,0.71-0.28,1.02
			C132.8,101.4,132.18,101.52,131.48,101.01z M145.04,112.71l-0.17-0.13c0.33-0.91,0.05-1.82-0.83-2.75
			c-0.32-0.34-1.12-0.97-2.41-1.91l-4.1-2.98c-0.89-0.65-1.52-0.98-1.89-0.98c-0.37-0.01-0.75,0.24-1.14,0.74l-0.17-0.13
			c0.45-0.79,0.88-1.85,1.28-3.16c0.07-0.19,0.13-0.4,0.19-0.61c1.17,0.94,2.35,1.85,3.53,2.71l3.06,2.22
			c1.58,1.15,2.52,1.8,2.81,1.96c1.31,0.68,2.37,0.69,3.17,0.06l0.17,0.13c-0.33,0.38-0.6,0.7-0.79,0.95l-1.06,1.46l-0.92,1.26
			C145.61,111.81,145.36,112.2,145.04,112.71z"/>
		<path class="st2" d="M146.38,86.62c-1.22-1.06-2.03-1.62-2.44-1.7c-0.4-0.07-0.82,0.13-1.26,0.61l-0.16-0.14
			c0.36-0.53,0.69-1.13,1.02-1.79c0.32-0.66,0.57-1.26,0.75-1.8c0.92,0.9,1.95,1.84,3.08,2.82l7.27,6.31
			c1.36,1.18,2.24,1.9,2.65,2.17c1.34,0.86,2.38,1,3.12,0.45l0.14,0.13c-0.16,0.16-0.39,0.4-0.7,0.72l-0.94,1.08l-0.41,0.48
			c-0.86-0.13-1.67-0.37-2.42-0.73c0.22,1.06,0.19,2.1-0.09,3.12c-0.28,1.02-0.79,1.96-1.52,2.81c-1.43,1.64-3.14,2.55-5.15,2.73
			c-2.01,0.17-3.82-0.44-5.44-1.84c-1.6-1.4-2.48-3.12-2.63-5.18c-0.15-2.1,0.49-3.98,1.94-5.65c0.79-0.92,1.7-1.57,2.72-1.97
			c1.08-0.41,2.17-0.48,3.26-0.21L146.38,86.62z M143.94,91.29c-1.11,1.28-1.53,2.69-1.26,4.24c0.27,1.55,1.19,3.01,2.76,4.38
			c1.48,1.29,2.94,2.04,4.38,2.26c1.74,0.26,3.24-0.34,4.5-1.79c2.27-2.61,1.65-5.43-1.84-8.46c-1.45-1.26-2.85-2.02-4.19-2.27
			C146.61,89.35,145.16,89.89,143.94,91.29z"/>
		<path class="st2" d="M168.6,78.43l0.69,0.12c0.83,1.78,1.11,3.45,0.82,5.02c-0.29,1.57-1.13,3-2.53,4.26
			c-1.74,1.57-3.62,2.32-5.65,2.25c-2.03-0.07-3.8-0.93-5.3-2.59c-1.49-1.64-2.15-3.46-2-5.46c0.15-2,1.09-3.77,2.8-5.33
			c1.45-1.31,2.97-2.05,4.57-2.22c1.69-0.17,3.23,0.34,4.6,1.55l-9.18,8.3c0.1,0.14,0.26,0.35,0.48,0.61l0.62,0.69
			c1.3,1.44,2.71,2.3,4.24,2.6c1.73,0.34,3.32-0.14,4.77-1.45c1.16-1.05,1.83-2.28,2-3.68C169.73,81.69,169.41,80.14,168.6,78.43z
			 M157.13,83.84l7.02-6.34c-0.93-0.95-1.95-1.49-3.06-1.61c-1.19-0.13-2.28,0.26-3.29,1.17c-1.03,0.93-1.58,2.02-1.65,3.28
			C156.09,81.46,156.41,82.62,157.13,83.84z"/>
		<path class="st2" d="M185.64,79.76l-0.63-3.14l0.15-0.1c0.32,0.23,0.64,0.34,0.96,0.33c0.32,0.02,0.66-0.09,1.01-0.31
			c0.63-0.4,1-1.04,1.1-1.91c0.1-0.82-0.05-1.53-0.44-2.15c-0.43-0.67-1.15-1.3-2.15-1.89l-7.29-4.28c-1.45-0.85-2.51-1.4-3.19-1.65
			c-0.73-0.27-1.31-0.34-1.76-0.22l-0.1-0.16c0.84-0.45,1.59-0.88,2.23-1.29c0.34-0.21,0.95-0.63,1.83-1.25
			c0.1-0.08,0.17-0.14,0.22-0.17l0.1,0.16c-0.27,0.25-0.43,0.49-0.49,0.71c-0.09,0.23-0.07,0.44,0.05,0.62
			c0.19,0.3,0.81,0.74,1.86,1.31l8.78,4.78l-0.93-8.06c-0.1-0.85-0.21-1.52-0.34-2.02c-0.13-0.5-0.26-0.85-0.39-1.06
			c-0.42-0.66-1.13-0.78-2.13-0.35l-0.1-0.16c0.03-0.02,0.06-0.03,0.07-0.04c0.96-0.53,1.64-0.91,2.05-1.17
			c0.48-0.3,1.17-0.79,2.1-1.46l0.1,0.16c-0.65,0.9-0.84,2.83-0.57,5.79l1.01,11.27c0.33,3.71-0.4,6.13-2.19,7.27
			C186.32,79.46,186.01,79.61,185.64,79.76z"/>
		<path class="st2" d="M193.57,60.08c-0.95-2.01-1-3.98-0.14-5.89c0.83-1.84,2.3-3.27,4.43-4.27c2.17-1.02,4.24-1.23,6.21-0.61
			c1.96,0.62,3.42,1.92,4.36,3.92c0.98,2.09,1.06,4.08,0.23,5.98c-0.79,1.85-2.29,3.29-4.49,4.32c-2.17,1.02-4.24,1.21-6.21,0.57
			C196,63.47,194.53,62.13,193.57,60.08z M195.99,58.97c0.95,2.01,2.12,3.36,3.54,4.06c1.41,0.7,2.91,0.68,4.49-0.06
			c1.77-0.83,2.76-2.12,2.97-3.85c0.18-1.41-0.15-3.02-1.01-4.83c-0.95-2.01-2.12-3.37-3.5-4.05c-1.38-0.69-2.87-0.65-4.45,0.1
			c-1.74,0.82-2.73,2.09-2.99,3.82C194.84,55.6,195.15,57.2,195.99,58.97z"/>
		<path class="st2" d="M224.97,52.38c-0.38,2.25-1.83,3.79-4.35,4.62c-2.36,0.78-4.26,0.64-5.71-0.41c-0.48-0.35-0.88-0.8-1.21-1.34
			c-0.31-0.52-0.7-1.49-1.16-2.91l-1.21-3.68c-0.36-1.1-0.69-1.77-0.99-2c-0.3-0.23-0.75-0.26-1.37-0.1l-0.07-0.2
			c0.37-0.17,0.88-0.47,1.55-0.89c0.7-0.44,1.31-0.88,1.85-1.3c0.42,1.52,0.84,2.91,1.25,4.18l0.7,2.11
			c0.77,2.33,1.46,3.88,2.09,4.63c1.1,1.35,2.63,1.7,4.58,1.06c1.91-0.63,3.02-1.76,3.32-3.41c0.23-1.22,0.01-2.84-0.66-4.86
			l-0.72-2.19c-0.4-1.22-0.66-1.92-0.77-2.1c-0.43-0.7-1.05-0.95-1.86-0.73l-0.07-0.2c0.66-0.34,1.22-0.66,1.67-0.96
			c0.37-0.24,0.94-0.65,1.69-1.22c0.39,1.42,0.8,2.81,1.25,4.17l0.83,2.53c0.72,2.19,1.15,3.45,1.3,3.76
			c0.81,1.78,1.71,2.63,2.71,2.53l0.06,0.18c-0.08,0.03-0.19,0.05-0.34,0.08c-0.89,0.28-1.53,0.48-1.91,0.6l-0.69,0.23
			C225.99,53.84,225.4,53.11,224.97,52.38z"/>
		<path class="st2" d="M230.29,53.76l-0.05-0.21c0.64-0.35,1.02-0.84,1.13-1.46c0.13-0.66-0.02-1.93-0.45-3.82l-1.06-4.68
			c-0.26-1.14-0.45-1.82-0.56-2.03c-0.34-0.65-0.91-0.91-1.72-0.75l-0.05-0.21c1.47-0.72,2.59-1.3,3.34-1.75l0.87,4.08
			c0.65-3.04,2.04-4.79,4.16-5.28l0.34-0.08c0.09,0,0.17-0.01,0.22-0.02l-0.4,3.18l-0.13,0.03c-0.48-0.36-0.98-0.48-1.53-0.35
			c-0.91,0.21-1.51,0.78-1.81,1.7c-0.31,0.97-0.29,2.22,0.06,3.77l0.36,1.57c0.49,2.16,0.92,3.49,1.28,3.98
			c0.37,0.49,0.93,0.77,1.69,0.81l0.05,0.21c-0.33,0.05-0.83,0.13-1.48,0.25l-1.42,0.32l-1.28,0.29
			C231.55,53.4,231.03,53.54,230.29,53.76z"/>
		<path class="st2" d="M249.76,42.53c-0.13-2.22,0.55-4.06,2.06-5.52c1.45-1.4,3.35-2.17,5.7-2.32c2.4-0.15,4.39,0.43,5.99,1.74
			c1.59,1.3,2.45,3.05,2.59,5.26c0.14,2.3-0.53,4.18-2.01,5.64c-1.42,1.42-3.35,2.2-5.77,2.34c-2.4,0.14-4.38-0.45-5.97-1.77
			C250.76,46.58,249.9,44.78,249.76,42.53z M252.42,42.39c0.13,2.21,0.72,3.91,1.77,5.08c1.05,1.18,2.45,1.71,4.19,1.61
			c1.95-0.12,3.34-0.94,4.19-2.47c0.69-1.24,0.98-2.86,0.86-4.86c-0.13-2.22-0.71-3.91-1.74-5.06c-1.03-1.15-2.42-1.67-4.17-1.57
			c-1.92,0.12-3.32,0.93-4.19,2.44C252.61,38.83,252.31,40.44,252.42,42.39z"/>
		<path class="st2" d="M287.1,50.76l-0.17-0.02l-4.38-12.76l-6.79,11.64l-0.14-0.01l-3.85-10.79c-0.49-1.38-0.8-2.2-0.91-2.45
			c-0.51-1.18-1.02-1.86-1.52-2.05l0.02-0.19c0.04,0,0.06,0.01,0.08,0.01c0.96,0.17,1.64,0.27,2.04,0.31
			c0.52,0.05,1.36,0.11,2.5,0.17l0.17-0.01l-0.02,0.19c-0.37,0-0.64,0.07-0.83,0.21c-0.19,0.14-0.29,0.36-0.33,0.67
			c-0.03,0.24,0.02,0.58,0.14,1.01c0.08,0.27,0.19,0.61,0.35,1.02l3.39,8.73l6.54-11.22l0.18,0.02l4.68,12.4l3.82-6.49
			c0.81-1.39,1.25-2.39,1.31-3.01c0.04-0.38-0.06-0.7-0.28-0.97c-0.23-0.26-0.58-0.46-1.07-0.58l0.02-0.19
			c0.04,0,0.06,0.01,0.09,0.01c0.97,0.17,1.67,0.27,2.11,0.32c0.86,0.09,1.63,0.13,2.33,0.13l-0.02,0.19
			c-0.97,0.36-2.2,1.77-3.69,4.24L287.1,50.76z"/>
		<path class="st2" d="M295.63,51.79l0.05-0.21c0.72-0.02,1.28-0.29,1.68-0.79c0.4-0.51,0.87-1.77,1.4-3.79l1.24-4.68
			c0.25-0.95,0.38-1.57,0.36-1.87c-0.04-0.66-0.41-1.1-1.12-1.34l0.05-0.18c1.11,0.03,2.33-0.01,3.65-0.09l-1.06,3.98
			c1.51-2.69,3.87-3.61,7.11-2.75c2.24,0.59,3.64,1.78,4.21,3.55c0.19,0.6,0.25,1.29,0.19,2.08c-0.06,0.73-0.29,1.88-0.71,3.45
			l-0.28,1.06c-0.48,1.81-0.73,2.84-0.76,3.11c-0.14,1.33,0.22,2.26,1.08,2.77l-0.05,0.21c-0.34-0.12-0.83-0.27-1.47-0.47
			l-1.34-0.35l-1.11-0.29c-0.22-0.06-0.77-0.18-1.67-0.36l0.06-0.2c0.72-0.02,1.28-0.28,1.67-0.76c0.4-0.49,0.84-1.69,1.35-3.61
			l0.43-1.65c0.63-2.38,0.75-4.19,0.37-5.44c-0.38-1.25-1.31-2.07-2.8-2.47c-1.67-0.44-3.09-0.2-4.27,0.73
			c-1.17,0.93-2.05,2.5-2.64,4.71l-0.34,1.3c-0.44,1.66-0.68,2.66-0.71,2.99c-0.12,1.26,0.23,2.14,1.05,2.65l-0.05,0.21
			c-0.32-0.11-0.79-0.26-1.42-0.46l-1.38-0.37l-1.14-0.3C297.01,52.08,296.47,51.97,295.63,51.79z"/>
		<path class="st2" d="M321.64,59.49l0.1-0.19c1.23,0.12,2.35-0.43,3.36-1.66c0.48-0.58,1.14-1.7,2-3.36
			c0.05-0.11,0.11-0.23,0.18-0.34c0.08-0.13,0.19-0.32,0.33-0.57l2.81-5.39c0.45-0.88,0.69-1.55,0.71-2.03
			c0.03-0.66-0.25-1.3-0.86-1.94l0.1-0.19c0.06,0.03,0.45,0.24,1.18,0.64c0.17,0.09,0.35,0.18,0.53,0.29
			c0.16,0.09,0.24,0.14,0.26,0.15l1.14,0.59l0.95,0.43c-0.13,2.71-0.21,5.49-0.22,8.35c-0.02,2.86,0.03,5.41,0.13,7.66l12.41-9.67
			c0.07,0.04,0.17,0.1,0.3,0.19c0.58,0.32,0.99,0.54,1.21,0.65c0.09,0.05,0.38,0.18,0.85,0.41c0.47,0.22,0.9,0.43,1.27,0.62
			l0.07,0.04l-0.1,0.19c-0.57-0.19-1.07-0.14-1.5,0.16c-0.45,0.32-0.96,1.02-1.52,2.11l-3.77,7.33c-0.82,1.59-1.3,2.6-1.43,3.02
			c-0.43,1.36-0.27,2.38,0.48,3.07l-0.1,0.19c-0.36-0.22-0.89-0.52-1.59-0.91l-2.52-1.3c-0.28-0.13-0.77-0.35-1.47-0.66l0.1-0.19
			c1.01,0.24,1.96-0.25,2.85-1.46c0.21-0.29,0.77-1.3,1.65-3.02l4.67-9.06l-14.65,11.45l-0.17-0.09c0.34-5.25,0.47-11.28,0.38-18.09
			l-3.79,7.35c-1.17,2.27-1.82,3.92-1.95,4.96c-0.13,1.03,0.12,1.93,0.76,2.68l-0.1,0.19c-0.3-0.18-0.72-0.43-1.27-0.75l-1.07-0.55
			l-1.2-0.62C322.88,60.05,322.38,59.82,321.64,59.49z"/>
		<path class="st2" d="M358.87,75.05l0.03,0.7c-1.57,1.18-3.15,1.8-4.75,1.84c-1.6,0.04-3.17-0.49-4.69-1.6
			c-1.89-1.37-3.01-3.06-3.37-5.06c-0.35-2,0.12-3.91,1.44-5.71c1.3-1.8,2.95-2.83,4.93-3.09c1.99-0.27,3.92,0.28,5.79,1.64
			c1.58,1.15,2.62,2.48,3.11,4.01c0.52,1.62,0.33,3.23-0.56,4.83l-10.02-7.26c-0.12,0.13-0.29,0.33-0.5,0.6l-0.54,0.75
			c-1.14,1.57-1.69,3.13-1.67,4.69c0.03,1.76,0.83,3.22,2.41,4.36c1.27,0.92,2.61,1.32,4.02,1.2
			C355.91,76.83,357.37,76.19,358.87,75.05z M351.2,64.94l7.66,5.55c0.74-1.11,1.05-2.22,0.94-3.33c-0.12-1.19-0.73-2.18-1.82-2.98
			c-1.13-0.82-2.31-1.13-3.55-0.93C353.31,63.43,352.24,63.99,351.2,64.94z"/>
		<path class="st2" d="M356.56,81.13l0.14-0.16c0.92,0.41,1.9,0.18,2.95-0.68c0.32-0.25,1.06-1.04,2.21-2.36l6.6-7.57
			c0.83-0.95,1.27-1.62,1.33-2.01c0.06-0.39-0.15-0.8-0.63-1.24l0.14-0.16c1,0.69,2.21,1.29,3.64,1.82
			c-0.94,0.95-2.04,2.14-3.29,3.58l-6.04,6.93c-1.19,1.37-1.89,2.22-2.1,2.56c-0.73,1.18-0.83,2.2-0.29,3.07l-0.14,0.16
			c-0.48-0.48-0.85-0.83-1.1-1.06L358.82,83l-1.24-1.08C357.35,81.73,357.01,81.47,356.56,81.13z"/>
		<path class="st2" d="M367.5,80.71c1.62-1.53,3.47-2.19,5.55-1.97c2.01,0.21,3.82,1.17,5.44,2.88c1.65,1.75,2.49,3.64,2.52,5.7
			c0.03,2.06-0.76,3.85-2.37,5.36c-1.68,1.58-3.54,2.28-5.61,2.09c-2-0.18-3.84-1.15-5.51-2.91c-1.65-1.74-2.48-3.65-2.48-5.71
			C365.04,84.07,365.86,82.26,367.5,80.71z M369.32,82.66c-1.61,1.53-2.53,3.07-2.76,4.62c-0.23,1.56,0.26,2.98,1.46,4.25
			c1.34,1.42,2.87,1.96,4.58,1.62c1.4-0.26,2.82-1.09,4.28-2.46c1.62-1.53,2.54-3.06,2.76-4.59c0.22-1.53-0.27-2.93-1.48-4.2
			c-1.32-1.4-2.84-1.95-4.56-1.65C372.16,80.52,370.74,81.32,369.32,82.66z"/>
		<path class="st2" d="M395.21,101.69c1.32-0.93,2.06-1.59,2.23-1.96c0.16-0.38,0.07-0.83-0.29-1.37l0.17-0.12
			c0.43,0.47,0.93,0.94,1.5,1.41c0.56,0.47,1.09,0.85,1.57,1.16c-1.09,0.68-2.25,1.46-3.47,2.32l-7.86,5.57
			c-1.46,1.04-2.38,1.72-2.73,2.05c-1.15,1.1-1.54,2.08-1.18,2.93l-0.15,0.11c-0.12-0.19-0.29-0.48-0.54-0.85l-0.83-1.17l-0.36-0.51
			c0.33-0.81,0.75-1.53,1.28-2.18c-1.08-0.04-2.08-0.31-3.01-0.83c-0.93-0.52-1.72-1.23-2.37-2.15c-1.26-1.78-1.73-3.66-1.42-5.65
			c0.31-1.99,1.33-3.61,3.08-4.84c1.74-1.23,3.62-1.67,5.65-1.33c2.08,0.35,3.75,1.42,5.03,3.22c0.7,0.99,1.12,2.03,1.26,3.1
			c0.14,1.15-0.04,2.22-0.56,3.22L395.21,101.69z M391.24,98.21c-0.98-1.38-2.25-2.12-3.82-2.23c-1.57-0.11-3.2,0.44-4.9,1.65
			c-1.61,1.14-2.68,2.37-3.23,3.72c-0.67,1.63-0.44,3.22,0.67,4.8c2,2.82,4.88,2.9,8.65,0.22c1.57-1.11,2.63-2.29,3.19-3.53
			C392.5,101.27,392.32,99.73,391.24,98.21z"/>
		<path class="st2" d="M381.29,118.12l3.18-0.37l0.08,0.16c-0.25,0.3-0.39,0.61-0.41,0.93c-0.04,0.32,0.03,0.67,0.23,1.04
			c0.35,0.66,0.95,1.08,1.81,1.25c0.8,0.17,1.53,0.08,2.18-0.26c0.7-0.37,1.39-1.03,2.06-1.98l4.87-6.91
			c0.97-1.37,1.6-2.39,1.92-3.04c0.33-0.7,0.45-1.28,0.36-1.74l0.17-0.09c0.38,0.88,0.75,1.65,1.1,2.33c0.19,0.35,0.55,1,1.1,1.92
			c0.08,0.11,0.13,0.18,0.15,0.24l-0.16,0.09c-0.23-0.29-0.45-0.47-0.67-0.55c-0.22-0.1-0.43-0.11-0.62,0
			c-0.32,0.16-0.8,0.75-1.46,1.75l-5.49,8.35l8.11-0.26c0.85-0.03,1.54-0.08,2.04-0.17c0.51-0.09,0.87-0.19,1.09-0.3
			c0.69-0.37,0.87-1.07,0.52-2.1l0.17-0.09c0.02,0.03,0.03,0.06,0.04,0.08c0.44,1,0.78,1.71,1,2.13c0.26,0.5,0.69,1.23,1.28,2.21
			l-0.17,0.09c-0.84-0.72-2.75-1.07-5.72-1.05l-11.31,0.08c-3.72,0.02-6.08-0.91-7.06-2.78C381.53,118.81,381.4,118.5,381.29,118.12
			z"/>
		<path class="st2" d="M394.92,131.93c0.36-0.15,0.72-0.15,1.06,0.01c0.34,0.16,0.59,0.43,0.75,0.82c0.15,0.35,0.15,0.72,0,1.09
			c-0.14,0.38-0.38,0.63-0.72,0.77c-0.33,0.13-0.68,0.12-1.04-0.05c-0.36-0.17-0.62-0.43-0.76-0.79c-0.15-0.38-0.16-0.75-0.03-1.1
			C394.3,132.33,394.55,132.08,394.92,131.93z M398.22,131.98c1.01-0.47,2.7-1.41,5.07-2.8c2.13-1.26,3.83-2.15,5.1-2.66
			c0.91-0.37,1.63-0.54,2.15-0.5c0.52,0.04,0.87,0.28,1.05,0.72c0.34,0.85-0.3,1.6-1.93,2.26c-1.26,0.51-3.12,1.08-5.59,1.7
			c-2.75,0.69-4.65,1.23-5.72,1.6L398.22,131.98z"/>
	</g>
	<g>
		<path class="st3" d="M381.19,230.81c-1.96-4.54-19.03-0.73-22.23,0.01c-3.19,0.71-4.18-3.41-4.18-3.41
			c5.78-5.81,15.35-40.36,17.5-44.54c2.13-4.14-2.74-7.58-2.74-7.58c-22.36,1.31-34.02,14.32-34.02,14.32
			c-3.32-1.64-14.2,6.42-21.4,12.8c-7.21,6.35-9.47,4.48-13.28,0.8c-3.8-3.7,0.95-2.6-18.05-43.04
			c-19.02-40.48-10.31-44.35-8.03-46.17c2.25-1.79,5.19,0.12,5.19,0.12c-7.85,5.66,14.44,33.71,16.02,35.54
			c1.54,1.8-2.66,5.77-4.41,9.61c-1.76,3.87,5.79,8.22,6.98,10.35c1.2,2.08-1.44,4.18,1.32,4.42c2.74,0.27,1.45-7.88-0.12-9.71
			c-1.54-1.79,0.46-4.63,2.7-6.42c2.28-1.82,2.19,2.53,3.75,4.36c1.57,1.82,1,7.76,1.87,9.51c0.87,1.76,4.18-0.29,3.75-2.99
			c-0.39-2.72,2.9-4.76,3.38-6.4c0.51-1.6-3.48-6.99-3.48-6.99c6.57-46.19-0.7-67.88-0.7-67.88s1-10.61-0.82-9.77
			c-1.81,0.87-5.66,11.86-5.66,11.86s-3.16-13.97-4.73-15.79c-1.54-1.79-1.51,1.2-2.15,7.82c-0.64,6.62-4.69,1.92-4.69,1.92
			c-63.29-6.34-78.7,45.07-66.06,86.95c5.14,17.09,3.92,30.1-0.26,40.11c0,0-7.6,19.89-30.21,20.5
			c-22.59,0.62-33.02-12.86-39.21-25.19c-2.38-4.73-3.68-10.59-4.37-16.03c-0.21-1.61-1.66-18.8-1.78-20.29
			c-7.86,4.79-2.42,38.01-0.9,45.4c1.63,7.1,50.4,97.99,139.64,44.67c3.25,2.32,34.64-6.25,40.03-8.1
			c5.39-1.85,18.18-12.06,29.23-14.78c10.99-2.66,10.45,3.3,10.02,4.26c0,0-38.18,35.33-42.87,37.25
			c-4.69,1.92-7.64,3.66-10.96,5.72c-3.34,2.05-3.53,0.32-3.53,0.32c-2.48-2.88-6.24-3.53-6.24-3.53
			c-16.93,13.51-11.07,13.69-6.74,12.06c4.33-1.58,7.28,0.34,11.17-0.31c3.86-0.67,5.56-3.86,5.56-3.86
			c8.16-1.6,20.2-11.22,32.6-21.13C360.53,257.68,383.18,235.32,381.19,230.81z M345.82,229.26c-8.67,7.52-5.18,6.67-5.18,6.67
			s0.56,2.44-1.1,3.87c-1.66,1.43-31.05,10.95-37.57,2.74c0,0-3.43-4.32,1.54-8.63c2.11-1.83,6.41-5.18,11.08-9.23
			c6.23-5.41,13.13-12.08,16.52-18.38c5.92-10.99,17.66-18.99,21.93-19.77c4.29-0.8,7.72-0.84,7.74,3.53
			C360.76,194.45,354.49,221.73,345.82,229.26z"/>
	</g>
	<g>
		<path class="st4" d="M148.04,318.62c2.71-18.99,5.4-37.98,7.83-57c-0.77,0.26-1.54,0.51-2.31,0.77
			c21.38,13.16,44.55,23.89,67.93,32.93c19.24,7.45,39.16,13.27,59.54,16.53c9.62,1.54,19.38,2.19,29.12,2.06
			c1.26-0.02,11.27,0.15,11.69-0.98c-0.99,2.69-1.98,5.39-2.97,8.09c-0.29,0.79,2.26,0.47,2.56-0.35c1.05-2.85,2.1-5.71,3.15-8.56
			c0.2-0.55-0.84-0.52-1.09-0.49c-38.95,4.56-78.45-8.17-113.9-23.13c-18.49-7.8-36.84-16.75-53.96-27.29
			c-0.51-0.32-2.22,0.06-2.31,0.77c-2.42,19.02-5.12,38.02-7.83,57C145.35,319.92,147.93,319.44,148.04,318.62L148.04,318.62z"/>
	</g>
	<g>
		<path class="st4" d="M148.8,248.5c-21.76-47.3-14.14-102.57,20.06-141.81c32.7-37.51,85.35-51.44,132.74-37.88
			c44.52,12.74,78.44,50.45,89.24,94.99c12.28,50.65-9.06,104.21-50.66,134.7c-0.77,0.54-1.54,1.08-2.32,1.62
			c-1.43,1,0.76,1.46,1.62,0.85c37.28-26.1,58.59-68.34,57.17-113.87c-1.32-42.48-25.05-81.54-60.28-104.58
			c-71.76-46.95-170.14-8.98-196.55,70.9c-10.36,31.34-7.28,65.99,6.42,95.77C146.67,250.14,149.19,249.35,148.8,248.5L148.8,248.5z
			"/>
	</g>
	<g>
		<g>
			<radialGradient id="SVGID_1_" cx="261.5312" cy="189.0847" r="113.0014" gradientUnits="userSpaceOnUse">
				<stop  offset="0" style="stop-color:#A6A6A6"/>
				<stop  offset="1" style="stop-color:#585857"/>
			</radialGradient>
			<path class="st5" d="M377.2,236.44c-1.96-4.54-19.03-0.73-22.24,0.01c-3.18,0.71-4.18-3.41-4.18-3.41
				c5.78-5.81,15.35-40.36,17.5-44.53c2.13-4.14-2.73-7.58-2.73-7.58c-22.36,1.32-34.02,14.32-34.02,14.32
				c-3.32-1.64-14.2,6.42-21.4,12.8c-7.21,6.35-9.47,4.48-13.29,0.8c-3.8-3.7,0.95-2.6-18.05-43.05
				c-19.02-40.47-10.31-44.35-8.03-46.17c2.24-1.79,5.19,0.12,5.19,0.12c-7.85,5.66,14.44,33.71,16.02,35.54
				c1.55,1.79-2.66,5.77-4.41,9.61c-1.76,3.86,5.79,8.22,6.98,10.34c1.2,2.08-1.44,4.18,1.32,4.42c2.74,0.28,1.45-7.88-0.12-9.7
				c-1.55-1.79,0.45-4.63,2.7-6.42c2.28-1.82,2.19,2.52,3.76,4.36c1.57,1.81,1,7.76,1.86,9.51c0.87,1.76,4.18-0.29,3.76-3
				c-0.39-2.72,2.9-4.75,3.39-6.4c0.51-1.6-3.48-6.99-3.48-6.99c6.57-46.19-0.7-67.88-0.7-67.88s1-10.61-0.82-9.77
				c-1.81,0.87-5.66,11.86-5.66,11.86s-3.16-13.97-4.73-15.79c-1.55-1.79-1.51,1.2-2.15,7.82c-0.64,6.62-4.69,1.92-4.69,1.92
				c-63.29-6.34-78.7,45.07-66.06,86.96c5.14,17.09,3.92,30.1-0.26,40.11c0,0-7.61,19.89-30.21,20.51
				c-22.59,0.61-33.02-12.86-39.21-25.2c-2.38-4.73-3.82-10.58-4.37-16.02c-2.1-20.7,3.31-32.44,3.19-33.93
				c-31.83,87.87,63.26,145.06,133.77,103.7c3.25,2.32,34.64-6.25,40.04-8.1c5.39-1.85,18.18-12.06,29.23-14.78
				c10.99-2.66,10.45,3.3,10.02,4.26c0,0-38.18,35.33-42.87,37.25c-4.7,1.92-7.64,3.66-10.96,5.72c-3.34,2.05-3.53,0.32-3.53,0.32
				c-2.48-2.88-6.24-3.53-6.24-3.53c-16.93,13.51-11.08,13.69-6.74,12.06c4.32-1.57,7.28,0.34,11.17-0.31
				c3.86-0.67,5.56-3.86,5.56-3.86c8.17-1.6,20.2-11.22,32.61-21.13C356.55,263.31,379.2,240.95,377.2,236.44z M341.84,234.89
				c-8.67,7.53-5.17,6.67-5.17,6.67s0.56,2.44-1.1,3.87c-1.66,1.43-31.05,10.95-37.57,2.74c0,0-3.43-4.32,1.54-8.63
				c2.11-1.83,6.41-5.18,11.08-9.23c6.23-5.41,13.12-12.08,16.51-18.38c5.92-10.98,17.66-18.99,21.93-19.76
				c4.29-0.81,7.72-0.84,7.74,3.53C356.78,200.08,350.51,227.36,341.84,234.89z"/>
		</g>
	</g>
	<g>
		<g>
			<path class="st1" d="M288.72,257.8c1.94,11.14,23.33,2.6,29.19,1.14c5.72-1.42,11.69-2.73,17.15-4.99
				c5-2.07,37.49-22.78,36.42-10.7c-0.18,2.02-6.81,6.45-8.27,7.78c-6.24,5.7-12.53,11.35-18.87,16.94
				c-4.66,4.1-9.32,8.46-14.48,11.95c-0.68,0.46-13.63,6.54-13.6,6.6c-0.99-2.12-4.62-3.36-6.68-3.85
				c-3.66-0.86-16.46,13.8-11.46,14c12.51,0.5,19.62-3.12,30.01-8.69c18-9.65,35.29-25.71,48.79-40.95
				c2.32-2.62,9.74-9.23,8.91-13.44c-0.85-4.34-8.74-3.15-11.75-2.92c-3.28,0.25-6.53,0.92-9.75,1.57
				c-6.98,1.41-3.93-3.67-2.44-6.41c3.58-6.59,5.83-14.02,8.23-21.09c2.18-6.43,13.79-28.54-0.31-27.32
				c-8.11,0.7-15.96,3.66-22.98,7.66c-2.37,1.35-4.56,3.02-6.66,4.77c-1.91,1.59-1.6,1.31-2.2,1.4
				c-8.67,1.32-29.99,24.41-34.54,11.07c-4.66-13.69-10-26.83-16.13-39.97c-4.42-9.48-17.91-32.9-10.28-43.86
				c0.47-0.67,1.15-1.17,1.81-1.66c4.42-3.3,1.79,2.88,1.71,3.56c-0.63,5.93,4.32,12.76,7.26,17.55c3.07,4.99,6.56,9.79,10.26,14.34
				c2.63,3.25-5.79,7.93-4.47,11.45c1.71,4.53,8.03,6.76,7.22,12.14c-0.03,0.2,0.07,0.31,0.23,0.41c2.66,1.62,5.19,0.32,4.92-3.18
				c-0.15-1.94-0.46-3.6-1.07-5.45c-1.5-1.77-0.62-3.21,2.63-4.31c0.61,1.04,1.16,2.12,1.64,3.22c1.05,2.25-0.82,8.25,2.6,8.97
				c4.7,0.98,6.42-8.24,7.86-10.63c0.95-1.57-1.63-4.69-2.46-6c-1.83-2.88,0.06-8.84,0.43-12.19c0.49-4.37,0.79-8.76,1.05-13.15
				c0.85-14.17,1.2-30.08-3.1-43.82c-0.55-1.76,2.16-10.64-1.82-10.14c-3.84,0.48-5.94,9.85-6.94,12.63
				c0.75-0.15,1.5-0.29,2.25-0.44c-1.02-4.48-1.61-13.47-5.46-16.44c-0.49-0.38-1.25-0.18-1.74,0.1
				c-1.74,1.02-2.27,12.05-4.14,10.46c-2.88-2.45-11.45-1.07-15.09-0.97c-11.16,0.31-22.09,3.26-31.71,8.93
				c-19.73,11.65-26.56,35.36-25.69,56.97c0.66,16.35,8.05,31.27,7.16,47.79c-0.56,10.44-4.82,19.79-12.48,26.81
				c-16.08,14.73-41.14,7.05-52.99-8.67c-8.54-11.34-10.97-25.97-10.3-39.88c0.05-0.93-2.22-0.48-2.25,0.28
				c-1.32,27.46,13.5,59.09,45.33,57.06c29.16-1.86,38.38-29.15,33.56-54.47c-3.13-16.46-7.48-30.47-4.74-47.53
				c2.58-16.12,11.43-30.37,25.57-38.72c9.12-5.38,19.95-7.07,30.37-7.36c3.17-0.09,9.44-0.83,11.95,1.3
				c0.91,0.77,1.88,0.88,3.01,0.73c4.13-0.52,3.14-8.62,3.52-11.27c-0.37,2.64,2.86,10.97,3.89,15.48c0.19,0.85,2.05,0.13,2.25-0.44
				c0.56-1.57,1.15-3.12,1.76-4.67c0.6-1.53,2.2-7.78,2.67-4.6c0.37,2.54-0.79,5.62-0.06,8.06c1.94,6.47,2.51,13.42,2.97,20.12
				c0.53,7.65,0.37,15.32,0.01,22.97c-0.21,4.39-0.62,8.78-1.05,13.15c-0.18,1.86-2.26,9.99-1.28,11.34
				c4.81,6.65,0.99,6.71,0.02,13.08c-0.71,4.65-2.58-5.02-2.66-5.44c-0.35-1.99-2.03-4.67-3.23-6.36c-0.23-0.32-0.9-0.2-1.2-0.13
				c-7.32,1.89-4.44,7.24-3.43,12.32c1.34,6.72-0.94-0.71-2.8-2.44c-6.07-5.66-2.4-9.9,0.02-16.04c0.9-2.28-6.58-9.81-7.68-11.4
				c-3.07-4.4-14.74-19.56-8.85-25.13c0.24-0.23,0.34-0.56-0.01-0.74c-4.67-2.37-9.2,0.67-10.68,5.21c-1.36,4.17-0.2,9.2,0.71,13.29
				c2.72,12.21,8.62,23.65,13.81,34.92c5.17,11.23,9.02,22.68,13.36,34.17c3.31,8.76,11.65,5.71,16.97,1.42
				c5.38-4.34,10.48-8.89,16.76-11.92c1.27-0.61,3.17,0.04,4.42-0.72c5.75-3.52,10-7.82,16.56-10.52
				c4.66-1.92,21.01-8.23,18.37,3.58c-0.46,2.07-1.61,4.25-2.29,6.28c-2.88,8.59-5.6,17.23-8.83,25.7
				c-1.52,3.99-7.48,10.82-5.48,14.68c2.07,3.99,11.05,0.4,13.74,0.02c4.47-0.64,14.45-1.38,10.37,5.68
				c-2.27,3.92-5.65,7.4-8.68,10.71c-7.01,7.65-14.72,14.77-22.77,21.31c-7.65,6.21-15.4,12.38-23.87,17.44
				c-2.98,1.78-15.55,7.02-18.38,6.9c-4.11-0.18-12.84,3.17-7.03-3.25c1.48-1.63,6.36-7.3,8.88-6.43c3.51,1.21,2.88,2.8,5.39,3.59
				c2.52,0.79,10.04-4.82,11.26-5.44c2.98-1.5,5.2-2.53,7.81-4.58c8.7-6.8,16.82-14.41,25-21.81c4.25-3.84,10.63-7.94,13.88-12.72
				c4.07-5.98-9.27-5.42-11.22-4.86c-12.67,3.7-22.52,12.96-35.15,16.55c-6.44,1.83-34.4,12.24-36.2,1.93
				C290.83,256.42,288.57,256.96,288.72,257.8L288.72,257.8z"/>
		</g>
		<g>
			<g>
				<g>
					<g>
						<path class="st1" d="M338.51,207.83c2.45-3.97,5.31-7.4,8.66-10.63c1.78-1.64,3.67-3.14,5.67-4.49
							c1.76-1.25,13.87-8.37,13.36,0.1c-0.35,5.78-2.51,11.77-4.28,17.23c-2.76,8.55-6.32,16.09-13.18,21.99
							c-0.18,0.15-5.2,4.19-3.33,5.22c3.51,1.92-3.46,3.96-5.46,4.58c-7.49,2.31-15.45,3.87-23.31,3.62
							c-4.54-0.15-8.91-1.76-8.83-6.86c0.06-3.83,8-8.05,10.9-10.36C326.15,222.3,333.42,215.93,338.51,207.83
							c0.68-1.09-1.92-0.91-2.41-0.13c-4.4,6.99-10.42,12.42-16.68,17.71c-3.2,2.7-11.62,7.02-13.4,11.48
							c-2.38,5.97,2.14,9.41,7.83,9.96c6.17,0.6,35.79-0.09,34.45-10.55c-0.06-0.44-0.82-0.49-1.13-0.44
							c3.09-0.52,7.82-6.95,9.79-9.62c2.65-3.6,4.32-7.93,5.96-12.05c2.24-5.63,7.13-16.29,5.9-22.57
							c-1.18-5.97-7.7-4.63-12.19-2.87c-8.57,3.36-15.82,11.34-20.52,18.96C335.42,208.79,338.02,208.61,338.51,207.83
							L338.51,207.83z"/>
					</g>
				</g>
			</g>
		</g>
	</g>
	<g>
		<g>
			<path class="st4" d="M285.91,255.63c1.95,11.15,23.33,2.6,29.19,1.15c5.72-1.42,11.69-2.73,17.15-4.99
				c5-2.07,37.5-22.78,36.42-10.7c-0.18,2.03-6.81,6.45-8.27,7.78c-6.24,5.7-12.53,11.35-18.87,16.94
				c-4.66,4.1-9.32,8.46-14.48,11.95c-0.68,0.46-13.63,6.53-13.6,6.6c-0.98-2.12-4.63-3.36-6.68-3.84
				c-3.66-0.86-16.46,13.8-11.46,14c12.51,0.51,19.62-3.13,30-8.69c18.01-9.65,35.29-25.71,48.79-40.95
				c2.32-2.62,9.74-9.23,8.91-13.45c-0.85-4.34-8.74-3.15-11.74-2.92c-3.28,0.25-6.53,0.92-9.75,1.57
				c-6.97,1.41-3.93-3.67-2.44-6.41c3.58-6.59,5.83-14.02,8.23-21.09c2.18-6.43,13.79-28.53-0.31-27.32
				c-8.11,0.7-15.96,3.65-22.97,7.66c-2.37,1.35-4.57,3.02-6.66,4.76c-1.91,1.59-1.6,1.31-2.2,1.4c-8.67,1.32-30,24.42-34.54,11.07
				c-4.66-13.69-10-26.83-16.13-39.96c-4.42-9.48-17.91-32.9-10.28-43.86c0.47-0.67,1.16-1.17,1.81-1.66
				c4.42-3.3,1.79,2.89,1.71,3.57c-0.63,5.92,4.32,12.76,7.26,17.55c3.07,4.99,6.56,9.79,10.25,14.34
				c2.64,3.25-5.79,7.93-4.47,11.45c1.71,4.53,8.04,6.76,7.22,12.14c-0.03,0.21,0.06,0.31,0.23,0.41c2.65,1.63,5.19,0.32,4.92-3.18
				c-0.15-1.94-0.46-3.6-1.07-5.45c-1.5-1.77-0.62-3.2,2.63-4.31c0.61,1.04,1.16,2.12,1.64,3.23c1.06,2.24-0.82,8.25,2.6,8.97
				c4.7,0.98,6.42-8.24,7.86-10.64c0.95-1.57-1.63-4.69-2.46-6c-1.83-2.88,0.06-8.84,0.43-12.19c0.48-4.37,0.78-8.76,1.05-13.15
				c0.86-14.17,1.2-30.08-3.1-43.81c-0.55-1.76,2.16-10.64-1.82-10.14c-3.84,0.48-5.95,9.85-6.94,12.63
				c0.75-0.15,1.5-0.29,2.25-0.44c-1.02-4.48-1.61-13.47-5.46-16.44c-0.49-0.38-1.25-0.18-1.75,0.1
				c-1.74,1.02-2.27,12.05-4.14,10.46c-2.88-2.45-11.45-1.07-15.09-0.97c-11.16,0.31-22.09,3.26-31.71,8.93
				c-19.73,11.65-26.57,35.36-25.69,56.97c0.66,16.35,8.05,31.27,7.17,47.8c-0.56,10.44-4.82,19.79-12.48,26.8
				c-16.08,14.72-41.14,7.05-52.99-8.67c-8.55-11.34-10.97-25.97-10.3-39.88c0.04-0.93-2.22-0.48-2.25,0.28
				c-1.32,27.48,13.49,59.09,45.33,57.06c29.16-1.86,38.38-29.14,33.56-54.47c-3.13-16.46-7.48-30.47-4.74-47.53
				c2.58-16.12,11.43-30.38,25.57-38.72c9.11-5.38,19.95-7.07,30.37-7.36c3.17-0.09,9.44-0.83,11.95,1.3
				c0.9,0.77,1.88,0.88,3.01,0.73c4.13-0.52,3.14-8.62,3.51-11.27c-0.37,2.64,2.86,10.97,3.89,15.48c0.19,0.85,2.05,0.13,2.25-0.44
				c0.56-1.57,1.15-3.12,1.76-4.66c0.6-1.53,2.2-7.78,2.67-4.6c0.37,2.54-0.79,5.62-0.06,8.06c1.94,6.47,2.51,13.42,2.97,20.12
				c0.53,7.64,0.37,15.32,0,22.97c-0.21,4.39-0.62,8.77-1.05,13.15c-0.18,1.86-2.26,9.99-1.29,11.34c4.8,6.65,0.99,6.71,0.02,13.08
				c-0.71,4.65-2.58-5.02-2.66-5.44c-0.35-1.99-2.03-4.67-3.22-6.36c-0.23-0.32-0.9-0.2-1.2-0.12c-7.31,1.9-4.44,7.23-3.43,12.32
				c1.34,6.72-0.94-0.71-2.8-2.44c-6.07-5.66-2.39-9.89,0.02-16.03c0.9-2.28-6.58-9.81-7.68-11.4c-3.07-4.4-14.74-19.56-8.85-25.13
				c0.24-0.23,0.35-0.56-0.01-0.73c-4.67-2.37-9.2,0.68-10.68,5.21c-1.36,4.17-0.21,9.2,0.71,13.3
				c2.72,12.21,8.62,23.65,13.81,34.92c5.17,11.23,9.02,22.67,13.37,34.17c3.31,8.76,11.65,5.71,16.97,1.42
				c5.38-4.34,10.48-8.89,16.77-11.92c1.27-0.61,3.17,0.04,4.42-0.72c5.75-3.52,10-7.82,16.56-10.52
				c4.66-1.92,21.01-8.22,18.37,3.58c-0.46,2.08-1.61,4.25-2.29,6.28c-2.88,8.59-5.6,17.23-8.83,25.7
				c-1.52,3.99-7.48,10.83-5.48,14.68c2.07,3.99,11.05,0.4,13.74,0.02c4.47-0.64,14.45-1.38,10.37,5.68
				c-2.26,3.92-5.65,7.41-8.68,10.71c-7.01,7.65-14.72,14.77-22.78,21.31c-7.65,6.21-15.4,12.38-23.87,17.43
				c-2.98,1.78-15.56,7.02-18.38,6.9c-4.1-0.18-12.84,3.17-7.03-3.25c1.48-1.63,6.36-7.3,8.87-6.43c3.46,1.2,2.9,2.8,5.39,3.58
				c2.51,0.79,10.05-4.83,11.27-5.44c2.98-1.5,5.2-2.54,7.81-4.58c8.7-6.8,16.82-14.41,25-21.8c4.25-3.85,10.63-7.94,13.88-12.72
				c4.07-5.98-9.27-5.43-11.22-4.86c-12.67,3.7-22.52,12.95-35.15,16.55c-6.44,1.83-34.4,12.24-36.2,1.93
				C288.03,254.25,285.77,254.8,285.91,255.63L285.91,255.63z"/>
		</g>
		<g>
			<g>
				<g>
					<g>
						<path class="st6" d="M335.7,205.66c2.45-3.97,5.31-7.4,8.66-10.63c1.78-1.64,3.67-3.13,5.67-4.49
							c1.76-1.26,13.87-8.37,13.37,0.1c-0.35,5.78-2.51,11.77-4.28,17.23c-2.76,8.55-6.32,16.09-13.19,21.99
							c-0.18,0.15-5.2,4.19-3.33,5.22c3.51,1.92-3.46,3.96-5.47,4.58c-7.49,2.31-15.45,3.86-23.31,3.61
							c-4.54-0.15-8.9-1.76-8.83-6.86c0.06-3.83,8-8.05,10.9-10.36C323.35,220.13,330.61,213.76,335.7,205.66
							c0.68-1.09-1.92-0.91-2.41-0.13c-4.4,6.99-10.42,12.43-16.68,17.71c-3.2,2.7-11.62,7.02-13.4,11.48
							c-2.38,5.97,2.14,9.41,7.83,9.96c6.18,0.59,35.78-0.09,34.45-10.56c-0.06-0.44-0.82-0.49-1.13-0.44
							c3.09-0.52,7.82-6.95,9.79-9.62c2.65-3.6,4.32-7.93,5.96-12.05c2.24-5.63,7.13-16.29,5.9-22.57
							c-1.18-5.98-7.69-4.64-12.19-2.87c-8.57,3.36-15.82,11.34-20.52,18.96C332.62,206.62,335.22,206.45,335.7,205.66L335.7,205.66
							z"/>
					</g>
				</g>
			</g>
		</g>
	</g>
	<g>
		<g>
			<path class="st4" d="M262.42,446.79c-6.92,11.17-12.56,23-18.17,34.86c-0.25,0.52,2.21,0.29,2.54-0.41
				c5.61-11.87,11.26-23.69,18.17-34.86C265.22,445.96,262.84,446.12,262.42,446.79L262.42,446.79z"/>
		</g>
	</g>
	<g>
		<path class="st7" d="M218.19,372.78l0.45,0.5l-0.22,0.22l-0.05,0.27l1.26,0.04l-0.23-0.27v-0.23l0.27-0.22h0.23l0.22,0.27h0.27
			l0.23-0.23h0.27l2.88,1.13l0.27-0.23l0.27,0.05c3.21,1.38,5.13,2.37,5.76,2.97c1.59,1.11,2.33,2.72,2.21,4.82l-0.27,0.22h-0.22
			l-0.45-0.99l-0.5-0.05l0.4,1.98l-0.05,0.27l-1.03,0.94l-0.22-0.04c-2.97-3.99-5.97-6.29-9-6.89l-0.99-0.54l-0.99,0.23l-1.44-0.59
			l-2.97-0.13l-0.45-0.54v-0.23h0.5v-0.23h-0.23l-1.75,0.14l0.27,0.27l-0.04,0.23l-0.5,0.49l-0.49-0.05c-0.33,0-0.48-0.25-0.45-0.76
			l-0.76-0.04l0.27,0.27l-0.05,0.5h-0.22l-3.73,0.27l0.04-0.49l0.5,0.05v-0.22l-0.77-0.05l-0.22,0.23l-0.05,0.22l0.27,0.27
			l-1.26,0.45l-0.22-0.27v-0.27l0.27-0.22h-0.27l-0.99,0.18v0.27h0.5l-0.04,0.5l-5,1.22l0.04-0.5l-0.54,0.5l0.23,0.27
			c-2.67,0.9-5.55,2.72-8.64,5.45h-0.27v0.23c0.96,1.53,1.83,2.32,2.61,2.38l-0.05,0.72l-0.76-0.04v0.27
			c2.4,0.93,11.69,2.64,27.86,5.13l0.72,0.54l0.23-0.27l0.5,0.05l1.48,0.59l0.99-0.23l0.45,0.54l0.76-0.23
			c5.19,1.14,7.79,1.85,7.79,2.12l0.22-0.22h0.27c7.05,1.77,13.17,4.14,18.36,7.11c4.89,3.21,8.09,6.75,9.59,10.62
			c0.45,2.67,0.79,4.01,1.03,4.01l-0.63,2.43l0.23,0.27v0.23c-0.81,3.54-2.88,7.05-6.21,10.53c-2.88,2.46-5.09,3.75-6.62,3.87
			l-0.04,0.72h-0.27l-0.23-0.27h-0.22l-0.05,0.5h-0.22l-0.22-0.27h-0.27l-0.77,0.67v-0.22c-1.68,0.51-2.52,0.96-2.52,1.35
			l-0.23-0.27h-0.27c-3.57,1.11-8.15,2.1-13.73,2.97l-0.22-0.27l-4.46,0.77l-0.27-0.27h-0.22l-1.49,0.4l-0.72-0.27l-1.76,0.14
			l-0.22-0.22l-0.27-0.04l-0.72,0.22l-0.23-0.27l-0.54,0.49l-1.49-0.09l-0.94-0.32l-1.53,0.45l-1.44-0.09l-0.99-0.32l-0.27,0.27
			l-0.23-0.05l-0.22-0.23l-0.27-0.04l-0.27,0.22l-1.22-0.27l-0.99,0.18l-0.23-0.27h-0.27l-0.22,0.23l-0.72-0.27l-5.94-0.09
			l-1.21-0.05l-0.72-0.54l-2.48,0.14l-2.43-0.63l-0.99,0.45l-7.83-1.62l-0.27,0.22h-0.23l-6.08-1.57l-0.72-0.27v-0.27l-0.27,0.27
			c-2.16-0.63-4.41-1.5-6.75-2.61l-0.27,0.27v-0.5l-0.23-0.04l-0.04,0.5l0.27,0.27h-0.27c-0.33-0.03-0.48-0.38-0.45-1.03l-0.23-0.23
			l-0.22-0.05l-0.27,0.27l-0.23-0.27h-0.27l-0.72,0.18c0-0.36-0.57-0.72-1.71-1.08l-2.79-2.84l-0.9-2.02l0.5,0.04v0.45l0.23,0.04
			v-0.27l-0.18-1.21l-0.22,0.22h-0.27l-0.23-0.27v-0.27c0.3-1.29,0.59-1.92,0.86-1.89l-0.23-0.27v-0.27
			c0.06-0.99,0.68-1.86,1.85-2.61h0.27l-0.04,0.49l-0.23,0.27l-0.05,0.23h0.27c2.25-2.67,7.32-3.8,15.21-3.38
			c1.14,0.27,1.7,0.61,1.67,1.03l-0.77,0.72l-3.69-0.18l-1.26,0.18l0.22,0.27v0.45l-1.71-0.09v-0.45h0.77v-0.23l-1.49-0.09
			c-0.45,0.81-1.38,1.17-2.79,1.08c-3.63,1.38-5.67,2.92-6.12,4.63c-0.21,3.63,5.77,7.07,17.96,10.31c1.47,0.24,2.44,0.54,2.92,0.9
			l0.99-0.23l0.23,0.27v0.22l0.22-0.22l0.99,0.04l0.5,0.54l0.22-0.22l1.48,0.04l0.72,0.54l2.21-0.13c0,0.33,0.24,0.51,0.72,0.54
			l3.24-0.09l0.45,0.54l3.96-0.04l0.22,0.27h0.23l0.27-0.22h0.27l4.86,0.99l0.76-0.23l-0.04,0.27l0.27-0.23l2.48,0.09l0.22,0.27
			l2.74-0.59c0.81,0.03,1.22,0.21,1.22,0.54l1.26-0.67l0.23,0.05c1.17,0.06,2.07,0.27,2.7,0.63c0.03-0.42,0.37-0.66,1.03-0.72
			l1.21,0.32c0-0.36,0.99-0.56,2.97-0.58l0.72,0.27c0.03-0.24,3.35-0.79,9.95-1.66c10.68-2.43,17.79-6.35,21.33-11.75l1.13-2.43
			l-0.23-0.22v-0.27l0.27-0.72h0.27l0.23,0.27h0.22l0.04-0.22l-0.45-1.49c0.12-0.66,0.39-0.98,0.81-0.95l0.05-1.26L260,418.1
			l0.27-0.27v-0.5c0.15-2.64-2.04-6.2-6.57-10.67c-0.54-1.38-4.22-3.54-11.03-6.48L228.86,396l-0.76,0.22l-0.72-0.54l-0.27,0.23
			h-0.23l-2.43-0.86l-0.77,0.18l-0.95-0.54l-0.99,0.18l-0.94-0.54l-0.77,0.22c-1.14-0.18-1.71-0.37-1.71-0.58l-0.27,0.22
			l-18.32-2.92l0.23,0.27l-0.05,0.49h-0.23l-0.45-0.54l0.22-0.22l-1.22-0.32h-0.22l0.22,0.27v0.22l-0.27,0.22h-0.49l-0.45-0.54
			l0.22-0.22l-0.22-0.27l-0.99-0.05l0.27,0.27l-0.04,0.27l-0.5,0.45h-0.27l-0.67-0.54l-0.27,0.22c-4.23-0.96-6.33-1.89-6.3-2.79
			l-1.35-1.8c0.06-1.14,0.26-1.71,0.59-1.71l-0.27-0.22l0.04-0.27c0.06-1.11,0.95-2.29,2.66-3.55l-0.04,0.23l-0.27,0.76
			c6.6-4.92,13.4-7.62,20.39-8.1l5.72-0.45l0.95,0.31l1.26,0.04l-0.27-0.23l0.04-0.27L218.19,372.78z M173.32,420.26v0.27h0.23
			l0.76-0.23v-0.22h-0.22L173.32,420.26z M187.72,385.25l-0.09,1.71l0.23,0.05l0.09-1.75H187.72z M191.73,379.31l0.22,0.23v0.27
			l-0.27,0.23h-0.49v-0.27L191.73,379.31z M207.66,375.93v0.22l0.27,0.04l0.72-0.22v-0.27h-0.23L207.66,375.93z M209.41,375.53
			l-0.27,0.23v0.27h0.27l0.72-0.22l0.05-0.22L209.41,375.53z M215.85,375.35v0.27l1.22,0.04v-0.22L215.85,375.35z"/>
		<path class="st7" d="M305.51,386.42l0.72,0.36l1.08-0.18l0.72,0.72v0.72l-0.36,0.54c0.36,0,0.54,0.12,0.54,0.36v0.36l-0.72,0.9
			l-0.18-0.18v-0.18l0.18-0.18v-0.18h-0.36c-0.27,0.09-0.63,0.87-1.08,2.34c-2.58,3.09-6.66,7.35-12.24,12.78
			c-3.09,2.61-5.01,4.83-5.76,6.66l-2.16,2.88c-1.95,3.18-3.21,4.92-3.78,5.22c-0.45,1.32-0.99,1.98-1.62,1.98
			c0,0.63-0.96,2.19-2.88,4.68v0.18c5.25-5.97,9.33-9.81,12.24-11.52c3.72-2.76,6.54-4.14,8.46-4.14v-0.36l-0.9,0.18v-0.54
			l2.34-0.54c0,0.21,0.54,0.39,1.62,0.54l0.72-0.18c1.44,1.08,2.16,2.04,2.16,2.88l0.18,0.18l-0.18,0.9h-0.18l-0.18-0.18h-0.18v0.18
			l0.54,1.44c-1.05,3.72-2.79,6.48-5.22,8.28l-3.78,2.52c1.32,0,3.28-0.12,5.89-0.36l1.04,0.94l-1.44,0.99h-1.26l-0.9,0.18
			l0.18,0.18v0.18l-0.18,0.18h-0.54v-0.36h0.36v-0.18h-0.18c-4.74-0.12-7.11,0.02-7.11,0.41v0.18h-1.08l-7.2,1.98h-0.18l-0.18-0.18
			l-0.36,0.36h-0.54l-0.18-0.18h-0.18l-0.54,0.54l-0.18-0.18l-0.9,0.18h-2.16c-0.48-0.21-0.72-0.57-0.72-1.08h-0.18
			c-6.57,8.16-10.77,14.1-12.6,17.82l-3.06,5.04l0.36,0.36v0.36c0,0.24-0.18,0.36-0.54,0.36l-0.54-0.18
			c-0.21,0.54-0.57,0.96-1.08,1.26c-0.36,0-0.54-0.48-0.54-1.44l-0.54,0.36l-0.36-0.36v-0.18l0.72-0.9l-0.54-0.54v-0.54
			c1.05-0.72,1.83-1.44,2.34-2.16l0.18,0.18h0.18c2.49-4.29,5.31-8.43,8.46-12.42c0.63-1.29,2.61-4.05,5.94-8.28l3.6-5.4l2.7-3.6
			c0.36,0,0.54-0.36,0.54-1.08l3.6-5.04c0.33,0,0.57-0.36,0.72-1.08c0.36,0,0.54-0.3,0.54-0.9c0.36,0,0.54-0.12,0.54-0.36h-0.18
			c-1.65,1.26-2.79,2.28-3.42,3.06c-0.21,0-0.99,0.66-2.34,1.98l-7.38,6.3c-4.23,4.29-7.47,6.69-9.72,7.2
			c-0.48-0.18-0.72-0.36-0.72-0.54l0.18-0.18v-0.18c-0.72-0.24-1.08-0.48-1.08-0.72c0-0.24,0.36-0.48,1.08-0.72v-0.18
			c-0.36,0-0.54-0.12-0.54-0.36c0-0.72,0.48-1.08,1.44-1.08c2.76-0.9,4.14-1.62,4.14-2.16c0.36,0,0.96-0.36,1.8-1.08h0.18v0.36
			l-2.52,2.16h0.18c6.54-4.98,14.04-11.4,22.5-19.26l9.9-12.78l-0.18-0.9c0.27,0,1.05-0.9,2.34-2.7
			C303.92,387.32,304.82,386.42,305.51,386.42z M272.2,420.98h0.18l-0.54,0.54h-0.18L272.2,420.98z M297.59,412.88v-0.18
			c-2.52,0.15-7.02,2.97-13.5,8.46c-3.12,3.15-4.68,4.89-4.68,5.22h0.18l1.08-0.18l1.8,0.36l0.36-0.36h0.36v0.54h-0.36v0.18H283
			l0.72-0.18l0.54,0.18l0.18-0.18v-0.18l-0.18-0.18l0.18-0.18h0.18v0.54h1.08l1.44-0.36l0.54,0.18v-0.36h0.18v0.36h0.36l-0.18-0.18
			v-0.18l0.54-0.36h0.18v0.36h-0.36v0.36h0.18c5.43-1.8,9.39-4.2,11.88-7.2v-0.18l-3.06,2.7h-0.18v-0.18
			c3.12-2.79,4.68-4.89,4.68-6.3c-0.24-1.92-1.02-2.88-2.34-2.88L297.59,412.88z M292.19,427.65h0.54v0.36h-0.54V427.65z
			 M293.99,411.26v0.18l-0.36,0.36h-0.18v-0.36L293.99,411.26z M296.69,410h0.36v0.54h-0.36V410z M298.67,397.58h0.18l1.26-1.44
			v-0.18L298.67,397.58z M299.84,427.6h0.9v0.36h-0.36l-0.18-0.18h-0.18l-0.18,0.18V427.6z M301.73,393.98
			c-0.57,0.84-0.99,1.26-1.26,1.26v0.36l1.44-1.62H301.73z M302.09,390.74v0.36c-0.48,0.03-0.72,0.27-0.72,0.72h0.18l0.72-0.9v-0.18
			H302.09z M302.81,390.02v0.18l0.36-0.36v-0.18L302.81,390.02z"/>
		<path class="st7" d="M318.25,411.04h0.18c0.6,0.03,0.9,0.15,0.9,0.36l0.9-0.18h0.36c0.24,0.06,0.48,0.36,0.72,0.9l-0.54,0.9v0.18
			c0.36,0,0.54,0.12,0.54,0.36v0.36l-0.9,0.9h-0.18v-0.54h-0.54c0,0.93-1.02,2.31-3.06,4.14l-3.02,2.65l-1.58,2.61
			c0.33,1.56,1.05,2.34,2.16,2.34c0.6,0.15,0.9,0.33,0.9,0.54l-0.36,0.54l0.9-0.18h1.44l0.36-0.36l0.9,0.18l4.68-0.9v-0.36
			l-2.16,0.54l-0.18-0.18v-0.18l1.08-0.54l0.18,0.18l1.08-0.54h0.18l0.36,0.36l-0.18,0.18v0.18c0.72,0,1.08,0.18,1.08,0.54v0.54
			l-0.36,0.36l0.18,0.18v0.36c0,0.48-2.52,0.96-7.56,1.44l-0.54,0.36h-1.08c-2.73,0-4.07-1.35-4-4.05l-0.18-0.54l0.36-1.98
			c-6.24,4.32-10.56,6.48-12.96,6.48l-1.08-1.44v-0.18l0.54-0.72l-0.36-1.08l0.54-0.54h0.18l1.62,0.18c2.91-0.72,5.31-1.74,7.2-3.06
			h0.18v0.36c-0.18,0.33-1.14,0.87-2.88,1.62v0.18h0.54c3.33-1.89,6.09-3.69,8.28-5.4l-0.18-0.18v-0.36l1.21-1.93
			C316.09,413.29,317.46,411.43,318.25,411.04z M308.57,421.43h0.18v0.36l-0.9,0.54h-0.36v-0.18L308.57,421.43z M309.47,420.89h0.18
			v0.54h-0.54v-0.18L309.47,420.89z M310.55,420.17h0.36l-0.18,0.54h-0.54v-0.18L310.55,420.17z M311.27,423.96l-1.04,2.61h0.18
			v-1.62l-0.18,0.18L311.27,423.96z M312.35,418.91l0.18,0.18v0.18l-0.18,0.18h-0.18l-0.18-0.18v-0.18l0.18-0.18H312.35z
			 M315.37,415v0.18l1.26-1.26C316.09,414.13,315.67,414.49,315.37,415z M315.81,426.21h0.9v0.54h-0.9V426.21z M319.42,425.84
			l0.18,0.18v0.18l-0.18,0.18h-0.18l-0.18-0.18v-0.18l0.18-0.18H319.42z M327.07,398.03h0.36c0.6,0.03,0.9,0.15,0.9,0.36l0.9-0.18
			h0.36l0.72,0.72v1.08l-0.18,0.18v0.18l0.36,0.36v0.9l-0.72,0.72l-0.72-0.18c0,1.38-1.44,3.12-4.32,5.22l-1.08,0.36l-1.44-1.98
			c0.15-2.64,0.51-3.96,1.08-3.96h0.18c0.36,0,0.54,0.24,0.54,0.72l0.54-0.36l1.8-1.62l-0.36-0.54v-0.9L327.07,398.03z
			 M322.75,405.59l0.36,0.36v-0.72L322.75,405.59z"/>
		<path class="st7" d="M344.94,408.43h0.54l0.72,0.54l0.36-0.36h0.72c0.24,0.06,0.48,0.36,0.72,0.9l-0.54,1.08
			c0.48,0,0.72,0.12,0.72,0.36v0.54c0,0.27-0.6,0.45-1.8,0.54c0,0.51-1.14,1.17-3.42,1.98c-4.26,3.6-7.02,6.72-8.28,9.36
			c-1.32,2.49-1.98,4.29-1.98,5.4v0.54l0.36,0.54l-0.36,0.54l0.18,0.9h0.18v-0.54l-0.18-0.18h0.18l1.62,1.62v0.36l-0.18,0.18v0.18
			l0.72,0.18l-0.18-0.18v-0.18l0.18-0.18h0.54c0.18,0,0.36,0.24,0.54,0.72c2.97,0,8.91-2.52,17.82-7.56l0.36-0.36h0.72l0.36,0.36
			v0.54c-0.21,0.72-0.93,1.38-2.16,1.98l-6.48,2.7l-0.9,0.36l0.18,0.18v0.36l-2.88,1.26l-0.36-0.36c0,0.42-0.54,0.84-1.62,1.26
			c0,0.24-0.84,0.54-2.52,0.9l-0.18-0.18c0,0.3-1.2,0.54-3.6,0.72c-1.53,0-2.91-1.2-4.14-3.6v-0.36h0.36v0.54h0.18v-0.36l-0.18-0.54
			h0.18l-0.18-1.08h-0.18v1.08h-0.36v-1.8c0-0.24,0.18-0.36,0.54-0.36v-0.18l-0.36-0.36c1.26-3.72,2.28-5.88,3.06-6.48
			c0.06-0.54,1.62-2.7,4.68-6.48h-0.36c0,0.24-0.18,0.36-0.54,0.36c0,0.36-0.12,0.54-0.36,0.54v-0.18l0.18-0.18v-0.18h-0.18
			l-2.52,0.72l-0.9-0.18c-0.93,0-2.19,1.26-3.78,3.78l-3.06,4.23l-4.01,4l-2.52,0.4v-0.18l-0.72-0.18v-0.72
			c0-0.33,0.3-0.51,0.9-0.54v-0.18c-0.36,0-0.54-0.12-0.54-0.36v-0.36c0.06-0.3,0.31-0.33,0.76-0.09l1.8-1.08h0.18v0.18l-0.9,1.08
			h0.18l2.34-1.8v-0.36l-0.9,0.54h-0.18v-0.18l0.9-0.9c0.24,0,0.36,0.18,0.36,0.54c3.57-3.93,5.55-6.42,5.94-7.47l-0.18-0.18
			c0.36,0,0.54-0.12,0.54-0.36c-1.2-0.72-1.8-1.5-1.8-2.34l0.54-0.36l-0.36-1.08v-0.18c0-1.08,0.72-1.62,2.16-1.62
			c1.74,0,2.76,0.36,3.06,1.08v0.9l-0.18,0.18v0.18l0.18,0.18h0.18c4.29-0.84,7.41-2.16,9.36-3.96L344.94,408.43z M324.95,422.92
			h0.18l0.36,0.36v0.18h-0.54V422.92z M326.03,422.02h0.36v0.36l-0.36,0.36h-0.36v-0.36L326.03,422.02z M326.93,421.3h0.18
			l-0.72,0.72v-0.18L326.93,421.3z M328.37,419.68h0.18v0.36l-0.72,0.18L328.37,419.68z M329.45,418.24l0.18,0.18v0.18l-0.18,0.18
			h-0.18l-0.18-0.18v-0.18l0.18-0.18H329.45z M329.81,414.19l0.36,0.36v-0.72L329.81,414.19z M337.92,432.37h0.54v0.36h-0.18
			L337.92,432.37z"/>
		<path class="st7" d="M372.26,411.04h0.18c0.6,0.03,0.9,0.15,0.9,0.36l0.9-0.18h0.36c0.24,0.06,0.48,0.36,0.72,0.9l-0.54,0.9v0.18
			c0.36,0,0.54,0.12,0.54,0.36v0.36l-0.9,0.9h-0.18v-0.54h-0.54c0,0.93-1.02,2.31-3.06,4.14l-3.01,2.65l-1.57,2.61
			c0.33,1.56,1.05,2.34,2.16,2.34c0.6,0.15,0.9,0.33,0.9,0.54l-0.36,0.54l0.9-0.18h1.44l0.36-0.36l0.9,0.18l4.68-0.9v-0.36
			l-2.16,0.54l-0.18-0.18v-0.18l1.08-0.54l0.18,0.18l1.08-0.54h0.18l0.36,0.36l-0.18,0.18v0.18c0.72,0,1.08,0.18,1.08,0.54v0.54
			l-0.36,0.36l0.18,0.18v0.36c0,0.48-2.52,0.96-7.56,1.44l-0.54,0.36h-1.08c-2.73,0-4.07-1.35-4.01-4.05l-0.18-0.54l0.36-1.98
			c-6.24,4.32-10.56,6.48-12.96,6.48l-1.08-1.44v-0.18l0.54-0.72l-0.36-1.08l0.54-0.54h0.18l1.62,0.18c2.91-0.72,5.31-1.74,7.2-3.06
			h0.18v0.36c-0.18,0.33-1.14,0.87-2.88,1.62v0.18h0.54c3.33-1.89,6.09-3.69,8.28-5.4l-0.18-0.18v-0.36l1.21-1.93
			C370.09,413.29,371.48,411.43,372.26,411.04z M362.58,421.43h0.18v0.36l-0.9,0.54h-0.36v-0.18L362.58,421.43z M363.48,420.89h0.18
			v0.54h-0.54v-0.18L363.48,420.89z M364.56,420.17h0.36l-0.18,0.54h-0.54v-0.18L364.56,420.17z M365.28,423.96l-1.04,2.61h0.18
			v-1.62l-0.18,0.18L365.28,423.96z M366.36,418.91l0.18,0.18v0.18l-0.18,0.18h-0.18l-0.18-0.18v-0.18l0.18-0.18H366.36z
			 M369.38,415v0.18l1.26-1.26C370.09,414.13,369.67,414.49,369.38,415z M369.83,426.21h0.9v0.54h-0.9V426.21z M373.43,425.84
			l0.18,0.18v0.18l-0.18,0.18h-0.18l-0.18-0.18v-0.18l0.18-0.18H373.43z M381.08,398.03h0.36c0.6,0.03,0.9,0.15,0.9,0.36l0.9-0.18
			h0.36l0.72,0.72v1.08l-0.18,0.18v0.18l0.36,0.36v0.9l-0.72,0.72l-0.72-0.18c0,1.38-1.44,3.12-4.32,5.22l-1.08,0.36l-1.44-1.98
			c0.15-2.64,0.51-3.96,1.08-3.96h0.18c0.36,0,0.54,0.24,0.54,0.72l0.54-0.36l1.8-1.62l-0.36-0.54v-0.9L381.08,398.03z
			 M376.76,405.59l0.36,0.36v-0.72L376.76,405.59z"/>
		<path class="st7" d="M416.77,372.42h0.58l0.41,0.41v0.63l-0.18,0.18v0.22h0.41c0-0.81,0.13-1.21,0.41-1.21h0.63l0.58,0.59v0.22
			c-0.21,0.54-0.62,0.81-1.21,0.81c0,1.5-0.41,2.45-1.22,2.84c-3.81,4.47-8.3,10.52-13.46,18.14v0.18l0.22-0.18h0.18l0.81,0.18
			l0.41-0.4h0.4v0.22l4.1-0.63v0.23c0.54-0.21,0.81-0.42,0.81-0.63l1.04,0.23l0.58-0.41l0.63,0.18c3.93-0.39,6.24-0.72,6.93-0.99
			l0.18,0.18v0.22c1.08-0.15,1.62-0.36,1.62-0.63l1.44,0.23h0.4l0.41-0.41l0.81,0.18c4.5-0.27,6.75-0.54,6.75-0.81l0.99,0.22h1.21
			c0.69,0,1.04-0.14,1.04-0.41l1.03,0.18h1.62l0.4-0.41l1.21,0.22l11.39-0.45l0.22-0.18v-0.23l1.04,0.23h5.89l0.59-0.41h0.23
			l0.18,0.18l0.63-0.18l0.22,0.18h0.18l0.63-0.18v0.18l0.18-0.18l1.44,0.18l5.09-0.18l1.03,0.41l1.21-0.23l6.08,0.63v-0.4l2.25-0.23
			l0.63,0.41l2.02-0.41l0.81,0.41l1.22-0.18c0.69,0.18,1.04,0.66,1.04,1.44v0.18c0,0.27-0.21,0.41-0.63,0.41v0.22
			c0.69,0.09,1.04,0.29,1.04,0.58v0.41l-0.4,0.41h-0.63l-0.81-0.59l-0.59,0.18l0.18,1.03l-0.41,0.41l-2.25-0.41
			c0,0.48-0.74,0.83-2.2,1.04h-0.63c-0.27,0-0.41-0.42-0.41-1.26c-0.69,0-1.03-0.14-1.03-0.4c0-0.3,0.34-0.5,1.03-0.59v-0.23
			l-0.81-0.4l-0.63,0.22c-0.15-0.69-0.34-1.04-0.59-1.04h-0.41l0.18,0.23v0.4h-0.18l-0.22-0.22h-0.18l0.18-0.18v-0.41
			c-3.12-0.15-4.68-0.42-4.68-0.81l-0.81,0.18l-4.68-0.18l-3.24,0.18l-4.73-0.18l-0.18,0.18h-0.23l-0.18-0.18h-0.22l-2.43,0.41
			l-2.25-0.22l-2.66,0.22l-0.18-0.22l-3.87,0.4l-0.23-0.18h-0.18l-0.22,0.18h-0.18l-0.22-0.18l-3.24,0.59l-1.04-0.18l-0.58,0.18
			v-0.18l-1.22,0.41l-1.67-0.23l-2.2,0.41l-1.26-0.18l-2.03,0.4l-0.58-0.22l-1.26,0.4l-0.99-0.18l-1.44,0.41l-0.18-0.22h-0.23
			l-1.44,0.4l-0.99-0.18l-0.81,0.18l-0.23-0.18l-0.4,0.41l-0.81-0.23l-1.21,0.41l-0.23-0.18v-0.23l-1.62,0.63l-1.21-0.23l-0.4,0.41
			l-0.81-0.18l-1.22,0.4l-0.23-0.22l-1.21,0.4l-0.81-0.18l-0.4,0.4h-0.23l-0.18-0.22l-0.22,0.22h-0.18l-0.23-0.22l-1.85,0.63
			l-0.58-0.18l-0.41,0.41h-0.4l-0.23-0.23c-2.31,0.6-3.46,1.41-3.46,2.43l-6.93,9.81c-1.5,1.89-2.51,3.45-3.01,4.68
			c-0.27,0-0.41,0.33-0.41,0.99l-1.44,2.48c-0.36,0-0.63,0.67-0.81,2.03c-0.39,0-1.49,2.58-3.29,7.74l-0.18,1.22
			c0.39,0,0.58,0.2,0.58,0.58h0.41c1.35-0.15,2.42-0.83,3.19-2.03l1.22-1.22h0.18c0.27,0,0.4,0.34,0.4,1.04h0.23l0.81-0.63h0.23
			l0.4,0.41v0.41l-1.44,1.84l0.18,0.18v0.63c-1.77,1.47-3.63,2.63-5.58,3.47c-1.11,0-2.13-0.75-3.06-2.25v-1.39h0.41v0.99l0.41,0.4
			v-0.18l-0.41-2.07l0.81-2.03l-0.18-0.58c0.39,0,0.58-0.42,0.58-1.26l2.25-4.68c0.54-0.09,0.81-0.63,0.81-1.62
			c-3.24,4.65-6.02,7.85-8.35,9.61c-2.32,1.75-3.49,2.36-3.49,1.82h-0.63v-0.63c0.39-0.69,0.8-1.03,1.21-1.03v-0.18
			c-0.54,0-0.81-0.13-0.81-0.41v-0.4c0-0.36,1.02-1.04,3.06-2.03l1.04-1.04c0.27,0,0.41,0.27,0.41,0.81
			c3.87-3.96,8.02-9.12,12.47-15.48l7.34-10.98v-0.41l-0.22,0.18h-0.41l-1.03-0.18c0,0.3-1.14,0.71-3.42,1.22l-0.23-0.22h-0.22
			l-7.11,1.62v0.45h-0.41v-0.22l0.23-0.22v-0.18h-0.63c-0.27,0-0.4,0.27-0.4,0.81h-0.81v-0.4h0.4v-0.22h-0.22
			c-0.57,0.15-0.9,0.5-0.99,1.04h-0.22v-0.18l-0.18,0.18h-0.22l-0.41-0.41l0.63-0.18v-0.22h-0.22l-0.81,0.22l0.23,0.18v0.23
			c0,0.27-0.69,0.47-2.07,0.59l-0.18-0.18l-2.65,0.41c-0.51,0-1.05-0.48-1.62-1.44c-0.42,0-0.63-0.14-0.63-0.4v-0.23l0.81-0.81
			l-0.18-0.18v-0.63l0.59-0.59l1.04,0.41l0.81-0.23l2.66,1.22h0.18c0.09-0.54,0.3-0.81,0.63-0.81h0.22v0.63
			c-0.42,0-0.63,0.13-0.63,0.4l15.66-2.25l0.63,0.22l0.63-0.63h0.18l0.23,0.23l0.81-0.41l0.59,0.18c2.25-3.54,4.37-6.53,6.35-8.95
			l8.55-12.02h-0.41v-0.63l0.59-0.81l-0.18-0.18v-0.22L416.77,372.42z M378.6,424.99v0.18h0.4c0-0.33,0.28-0.52,0.86-0.58v-0.41
			L378.6,424.99z M388.64,416.03l-0.41,0.81v0.18h0.22l0.41-0.81v-0.18H388.64z M388.77,427.83c0,0.24-0.05,0.17-0.14-0.22v0.41
			h0.54v-0.18H388.77z M419.2,375.08h0.23v0.4h-0.63L419.2,375.08z"/>
	</g>
	<g>
		<g>
			<g>
				<path class="st1" d="M110.22,494.88c7.02-31.76,13.63-63.6,19.79-95.54c0.14-0.7-2.11-0.31-2.23,0.34
					c-6.16,31.95-12.77,63.81-19.8,95.58C108.72,495.13,109.47,494.99,110.22,494.88z"/>
			</g>
		</g>
		<g>
			<g>
				<path class="st7" d="M245.59,482.33c5.74-12.54,11.95-24.84,19.24-36.6c0.56-0.9-1.99-0.54-2.35,0.07
					c-7.2,11.62-13.37,23.76-19.06,36.14C244.15,482.05,244.87,482.19,245.59,482.33z"/>
			</g>
			<g>
				<path class="st4" d="M113.77,494.42c6.02-28.37,11.75-56.8,17.24-85.28c0.22-1.16-2.39-0.78-2.59,0.25
					c-5.49,28.51-11.23,56.97-17.25,85.37C112.03,494.63,112.89,494.51,113.77,494.42z"/>
			</g>
		</g>
	</g>
	<rect x="65.51" y="329.85" class="st0" width="434.89" height="43.34"/>
	<text transform="matrix(1 0 0 1 65.5135 363.919)" class="st3 st8 st9">LE PETIT ROCHER</text>
</g>
</svg>
